<svg xmlns="http://www.w3.org/2000/svg" xmlns:xlink="http://www.w3.org/1999/xlink" width="500" zoomAndPan="magnify" viewBox="0 0 375 374.999991" height="500" preserveAspectRatio="xMidYMid meet" version="1.0"><defs><clipPath id="0c65b3b50a"><path d="M 33.792969 33.792969 L 341.207031 33.792969 L 341.207031 341.207031 L 33.792969 341.207031 Z M 33.792969 33.792969 " clip-rule="nonzero"/></clipPath><clipPath id="b21f6876d3"><path d="M 187.5 33.792969 C 102.609375 33.792969 33.792969 102.609375 33.792969 187.5 C 33.792969 272.390625 102.609375 341.207031 187.5 341.207031 C 272.390625 341.207031 341.207031 272.390625 341.207031 187.5 C 341.207031 102.609375 272.390625 33.792969 187.5 33.792969 Z M 187.5 33.792969 " clip-rule="nonzero"/></clipPath><clipPath id="ab02dfeb08"><path d="M 65.914062 68.617188 L 284.164062 68.617188 L 284.164062 306.367188 L 65.914062 306.367188 Z M 65.914062 68.617188 " clip-rule="nonzero"/></clipPath><clipPath id="75d82220d7"><path d="M 172 157 L 284.164062 157 L 284.164062 218 L 172 218 Z M 172 157 " clip-rule="nonzero"/></clipPath><clipPath id="e8dcbc7cda"><path d="M 247 157 L 284.164062 157 L 284.164062 278 L 247 278 Z M 247 157 " clip-rule="nonzero"/></clipPath></defs><g clip-path="url(#0c65b3b50a)"><g clip-path="url(#b21f6876d3)"><path fill="#0e162a" d="M 33.792969 33.792969 L 341.207031 33.792969 L 341.207031 341.207031 L 33.792969 341.207031 Z M 33.792969 33.792969 " fill-opacity="1" fill-rule="nonzero"/></g></g><g clip-path="url(#ab02dfeb08)"><path fill="#42bfce" d="M 119.773438 187.496094 C 119.773438 143.796875 150.3125 113.953125 195.003906 113.953125 C 211.878906 113.953125 226.726562 118.257812 239.992188 127.363281 L 284.335938 103.707031 C 262.066406 80.742188 230.242188 68.617188 192.378906 68.617188 C 119.132812 68.617188 65.925781 118.207031 65.925781 187.496094 C 65.925781 256.785156 119.132812 306.378906 192.378906 306.378906 C 220.144531 306.378906 244.644531 299.84375 264.492188 287.375 L 239.941406 247.628906 C 226.679688 256.738281 211.878906 261.042969 194.953125 261.042969 C 150.3125 261.042969 119.773438 231.199219 119.773438 187.496094 Z M 119.773438 187.496094 " fill-opacity="1" fill-rule="evenodd"/></g><g clip-path="url(#75d82220d7)"><path fill="#0e162a" d="M 247.316406 217.242188 L 284.335938 157.949219 L 172.683594 217.539062 L 235.734375 217.292969 Z M 247.316406 217.242188 " fill-opacity="1" fill-rule="evenodd"/></g><g clip-path="url(#e8dcbc7cda)"><path fill="#737373" d="M 284.335938 157.949219 L 247.316406 217.242188 L 284.335938 277.175781 Z M 284.335938 157.949219 " fill-opacity="1" fill-rule="evenodd"/></g></svg>